<svg 
 xmlns="http://www.w3.org/2000/svg"
 xmlns:xlink="http://www.w3.org/1999/xlink"
 width="93px" height="75px">
<path fill-rule="evenodd"  fill="rgb(255, 255, 255)"
 d="M74.294,-0.003 L62.050,18.416 L49.395,-0.003 L74.294,-0.003 ZM60.106,22.628 L32.943,22.628 L46.523,74.028 L60.106,22.628 ZM33.850,19.610 L59.197,19.610 L46.523,1.161 L33.850,19.610 ZM30.998,18.416 L43.651,-0.003 L18.754,-0.003 L30.998,18.416 ZM43.645,74.998 L29.809,22.628 L-0.000,22.628 L43.645,74.998 ZM0.042,19.610 L28.157,19.610 L15.910,1.187 L0.042,19.610 ZM77.116,1.222 L64.892,19.610 L92.957,19.610 L77.116,1.222 ZM63.239,22.628 L49.401,74.992 L93.000,22.628 L63.239,22.628 Z"/>
</svg>