<svg 
 xmlns="http://www.w3.org/2000/svg"
 xmlns:xlink="http://www.w3.org/1999/xlink"
 width="58px" height="97px">
<path fill-rule="evenodd"  fill="rgb(24, 207, 171)"
 d="M57.979,72.926 C57.979,75.494 57.292,78.007 55.996,80.206 L52.363,86.414 L16.397,86.414 C6.387,76.164 1.308,65.235 0.536,60.544 C-0.000,57.325 2.218,55.171 4.683,55.171 C6.087,55.171 7.577,55.864 8.691,57.477 C9.045,57.999 9.431,58.561 9.860,59.178 C13.064,63.870 16.354,63.913 17.811,63.957 C17.822,63.957 17.833,63.957 17.843,63.957 C17.887,63.957 17.940,63.957 17.983,63.944 C17.994,63.944 17.994,63.944 18.004,63.944 C18.519,63.870 18.894,63.436 18.894,62.916 L18.915,19.117 C18.904,16.659 21.048,15.338 23.127,15.338 C24.960,15.338 26.739,16.366 26.964,18.534 C26.964,18.577 29.729,45.605 29.739,45.691 C29.739,45.703 29.739,45.703 29.739,45.703 L29.750,45.703 C30.511,45.020 31.775,44.620 33.222,44.620 C33.758,44.620 34.316,44.674 34.883,44.781 C36.716,45.150 48.719,49.060 54.667,51.022 C56.660,51.671 58.000,53.545 58.000,55.657 L57.979,72.926 ZM31.775,33.905 C31.015,26.506 30.168,18.240 30.168,18.197 C29.975,16.291 29.054,14.623 27.575,13.517 C26.353,12.608 24.777,12.098 23.138,12.098 C21.037,12.098 19.044,12.901 17.651,14.307 C16.397,15.587 15.711,17.299 15.711,19.129 L15.700,34.977 C9.217,32.214 4.673,25.737 4.683,18.197 C4.683,8.145 12.743,-0.003 22.688,-0.003 C32.633,-0.003 40.692,8.145 40.692,18.197 C40.692,24.893 37.102,30.742 31.775,33.905 ZM52.384,94.832 C52.384,96.022 51.420,96.998 50.241,96.998 L18.562,96.998 C17.383,96.998 16.418,96.022 16.418,94.832 L16.418,89.868 L52.384,89.868 L52.384,94.832 Z"/>
</svg>