<svg 
 xmlns="http://www.w3.org/2000/svg"
 xmlns:xlink="http://www.w3.org/1999/xlink"
 width="99px" height="76px">
<path fill-rule="evenodd"  fill="rgb(255, 255, 255)"
 d="M72.943,75.106 L72.943,32.164 L99.000,32.164 L99.000,75.106 L72.943,75.106 ZM86.304,73.253 C87.132,73.253 87.807,72.591 87.807,71.777 C87.807,70.964 87.132,70.306 86.304,70.306 C85.472,70.306 84.800,70.968 84.800,71.777 C84.800,72.591 85.476,73.253 86.304,73.253 ZM86.550,33.942 C86.202,33.942 85.919,34.215 85.919,34.559 C85.919,34.896 86.202,35.177 86.550,35.177 C86.898,35.177 87.179,34.896 87.179,34.559 C87.179,34.217 86.898,33.942 86.550,33.942 ZM90.298,36.001 L82.802,36.001 L82.802,36.591 L90.298,36.591 L90.298,36.001 ZM94.819,38.700 L77.124,38.704 L77.124,68.230 C80.479,68.257 88.052,68.233 94.819,68.196 L94.819,38.700 ZM81.362,5.363 L19.188,5.363 L19.188,16.538 L13.710,16.538 L13.710,-0.002 L86.841,-0.002 L86.841,30.082 L81.362,30.082 L81.362,5.363 ZM38.797,75.998 L-0.000,75.998 L-0.000,18.976 L38.797,18.976 L38.797,75.998 ZM20.217,73.139 C21.250,73.139 22.091,72.312 22.088,71.304 C22.088,70.296 21.250,69.473 20.217,69.473 C19.184,69.473 18.348,70.296 18.348,71.304 C18.348,72.312 19.184,73.139 20.217,73.139 ZM5.610,24.470 L5.610,66.543 L33.188,66.543 L33.191,24.470 L5.610,24.470 ZM70.111,47.239 L41.297,47.239 L41.297,41.873 L70.111,41.873 L70.111,47.239 ZM51.313,49.435 L70.111,49.435 L70.111,57.052 L41.297,57.052 L41.297,54.113 L60.611,54.113 L60.611,52.688 L41.297,52.688 L41.297,49.435 L49.227,49.435 L51.313,49.435 Z"/>
</svg>