<svg 
 xmlns="http://www.w3.org/2000/svg"
 xmlns:xlink="http://www.w3.org/1999/xlink"
 width="60px" height="96px">
<path fill-rule="evenodd"  fill="rgb(24, 207, 171)"
 d="M48.000,74.998 C48.000,76.656 46.658,77.997 45.000,77.997 L15.000,77.997 C13.342,77.997 12.000,76.656 12.000,74.998 C12.000,73.340 13.342,71.998 15.000,71.998 L45.000,71.998 C46.658,71.998 48.000,73.340 48.000,74.998 ZM45.000,80.998 L15.000,80.998 C13.342,80.998 12.000,82.339 12.000,83.998 C12.000,85.657 13.342,86.997 15.000,86.997 L45.000,86.997 C46.658,86.997 48.000,85.657 48.000,83.998 C48.000,82.339 46.658,80.998 45.000,80.998 ZM24.000,95.998 L36.000,95.998 C39.316,95.998 42.000,93.314 42.000,89.998 L18.000,89.998 C18.000,93.314 20.684,95.998 24.000,95.998 ZM60.000,29.997 C60.000,46.309 50.168,48.208 48.322,65.997 C48.322,67.657 46.980,68.998 45.322,68.998 L14.678,68.998 C13.019,68.998 11.678,67.657 11.678,65.997 L11.672,65.997 C9.832,48.208 0.000,46.309 0.000,29.997 C0.000,13.428 13.430,-0.003 30.000,-0.003 C46.570,-0.003 60.000,13.428 60.000,29.997 ZM42.146,20.998 C7.271,29.248 24.146,50.998 24.146,50.998 C24.146,38.997 32.959,36.185 33.146,36.560 C26.959,42.560 24.146,62.998 24.146,62.998 L30.146,62.998 C30.146,62.998 30.146,56.997 30.146,50.998 C47.209,51.935 42.146,23.059 42.146,20.998 Z"/>
</svg>